<svg width="170" height="170" viewBox="0 0 170 170" fill="none" xmlns="http://www.w3.org/2000/svg">
<rect width="170" height="170" fill="#F0D9A5"/>
<path d="M47.5 58.8333H80.8333V25.5H47.5V58.8333ZM55.8333 33.8333H72.5V50.5H55.8333V33.8333Z" fill="black"/>
<path d="M47.5 100.5H80.8333V67.1667H47.5V100.5ZM55.8333 75.5H72.5V92.1667H55.8333V75.5Z" fill="black"/>
<path d="M89.1667 25.5V58.8333H122.5V25.5H89.1667ZM114.167 50.5H97.5V33.8333H114.167V50.5Z" fill="black"/>
<path d="M122.5 92.1667H114.167V100.5H122.5V92.1667Z" fill="black"/>
<path d="M97.5 67.1667H89.1667V75.5H97.5V67.1667Z" fill="black"/>
<path d="M105.833 75.5H97.5V83.8333H105.833V75.5Z" fill="black"/>
<path d="M97.5 83.8333H89.1667V92.1667H97.5V83.8333Z" fill="black"/>
<path d="M105.833 92.1667H97.5V100.5H105.833V92.1667Z" fill="black"/>
<path d="M114.167 83.8333H105.833V92.1667H114.167V83.8333Z" fill="black"/>
<path d="M114.167 67.1667H105.833V75.5H114.167V67.1667Z" fill="black"/>
<path d="M122.5 75.5H114.167V83.8333H122.5V75.5Z" fill="black"/>
<path d="M52.1507 146.45C50.8307 146.45 49.5207 146.32 48.2207 146.06C46.9207 145.82 45.8507 145.48 45.0107 145.04V140.27C46.0907 140.83 47.2107 141.25 48.3707 141.53C49.5507 141.81 50.6707 141.95 51.7307 141.95C52.7107 141.95 53.4507 141.8 53.9507 141.5C54.4507 141.2 54.7007 140.77 54.7007 140.21C54.7007 139.79 54.5607 139.43 54.2807 139.13C54.0207 138.81 53.6307 138.52 53.1107 138.26C52.5907 138 51.7807 137.64 50.6807 137.18C48.7407 136.36 47.3307 135.45 46.4507 134.45C45.5707 133.45 45.1307 132.22 45.1307 130.76C45.1307 129.56 45.4607 128.49 46.1207 127.55C46.8007 126.61 47.7407 125.88 48.9407 125.36C50.1407 124.84 51.5207 124.58 53.0807 124.58C54.3607 124.58 55.5007 124.68 56.5007 124.88C57.5007 125.08 58.4607 125.4 59.3807 125.84V130.49C57.6207 129.57 55.8507 129.11 54.0707 129.11C53.1107 129.11 52.3407 129.27 51.7607 129.59C51.2007 129.89 50.9207 130.33 50.9207 130.91C50.9207 131.49 51.2107 131.96 51.7907 132.32C52.3707 132.68 53.4407 133.17 55.0007 133.79C56.4207 134.37 57.5207 134.94 58.3007 135.5C59.1007 136.06 59.6807 136.71 60.0407 137.45C60.4007 138.19 60.5807 139.13 60.5807 140.27C60.5807 142.21 59.8707 143.73 58.4507 144.83C57.0507 145.91 54.9507 146.45 52.1507 146.45ZM72.7591 146.45C70.4791 146.45 68.4691 146.01 66.7291 145.13C65.0091 144.25 63.6791 142.99 62.7391 141.35C61.7991 139.69 61.3291 137.75 61.3291 135.53C61.3291 133.31 61.7991 131.38 62.7391 129.74C63.6791 128.08 65.0091 126.81 66.7291 125.93C68.4691 125.03 70.4791 124.58 72.7591 124.58C74.2591 124.58 75.5991 124.73 76.7791 125.03C77.9591 125.33 79.0491 125.8 80.0491 126.44V131.48C79.1691 130.78 78.1691 130.27 77.0491 129.95C75.9491 129.63 74.6791 129.47 73.2391 129.47C71.1791 129.47 69.5891 130.01 68.4691 131.09C67.3491 132.15 66.7891 133.63 66.7891 135.53C66.7891 137.43 67.3491 138.92 68.4691 140C69.6091 141.08 71.1991 141.62 73.2391 141.62C74.6791 141.62 75.9691 141.45 77.1091 141.11C78.2491 140.77 79.3091 140.23 80.2891 139.49V144.5C78.3891 145.8 75.8791 146.45 72.7591 146.45ZM89.4166 125.03H94.6366L103.007 146H97.5766L95.8966 141.68H88.1566L86.4766 146H81.0166L89.4166 125.03ZM94.5766 137.6L92.0266 130.55L89.4466 137.6H94.5766ZM105.113 125.03H110.363L118.073 137.51V125.03H123.383V146H118.163L110.423 133.49V146H105.113V125.03Z" fill="black"/>
</svg>
